<svg width="12" height="16" viewBox="0 0 12 16" fill="none" xmlns="http://www.w3.org/2000/svg">
<path fill-rule="evenodd" clip-rule="evenodd" d="M0.25 2C0.25 1.46957 0.460714 0.960859 0.835786 0.585786C1.21086 0.210714 1.71957 0 2.25 0L11 0C11.1989 0 11.3897 0.0790176 11.5303 0.21967C11.671 0.360322 11.75 0.551088 11.75 0.75V11.25C11.75 11.4489 11.671 11.6397 11.5303 11.7803C11.3897 11.921 11.1989 12 11 12H5.5V13.5H11C11.1989 13.5 11.3897 13.579 11.5303 13.7197C11.671 13.8603 11.75 14.0511 11.75 14.25C11.75 14.4489 11.671 14.6397 11.5303 14.7803C11.3897 14.921 11.1989 15 11 15H5.5V16H4V15H2.5C1.90326 15 1.33097 14.7629 0.90901 14.341C0.487053 13.919 0.25 13.3467 0.25 12.75V2ZM4 13.5V12H2.5C2.30109 12 2.11032 12.079 1.96967 12.2197C1.82902 12.3603 1.75 12.5511 1.75 12.75C1.75 12.9489 1.82902 13.1397 1.96967 13.2803C2.11032 13.421 2.30109 13.5 2.5 13.5H4ZM10.25 1.5V10.5H2.5C2.236 10.5013 1.986 10.544 1.75 10.628V2C1.75 1.86739 1.80268 1.74021 1.89645 1.64645C1.99021 1.55268 2.11739 1.5 2.25 1.5H10.25Z" fill="#636A79"/>
</svg>
