<svg width="24" height="24" viewBox="0 0 24 24" fill="none" xmlns="http://www.w3.org/2000/svg">
<g clip-path="url(#clip0_39_596)">
<path d="M6.5 11L12 2L17.5 11H6.5ZM17.5 22C16.25 22 15.1877 21.5627 14.313 20.688C13.4383 19.8133 13.0007 18.7507 13 17.5C12.9993 16.2493 13.437 15.187 14.313 14.313C15.189 13.439 16.2513 13.0013 17.5 13C18.7487 12.9987 19.8113 13.4363 20.688 14.313C21.5647 15.1897 22.002 16.252 22 17.5C21.998 18.748 21.5607 19.8107 20.688 20.688C19.8153 21.5653 18.7527 22.0027 17.5 22ZM3 21.5V13.5H11V21.5H3ZM17.5 20C18.2 20 18.7917 19.7583 19.275 19.275C19.7583 18.7917 20 18.2 20 17.5C20 16.8 19.7583 16.2083 19.275 15.725C18.7917 15.2417 18.2 15 17.5 15C16.8 15 16.2083 15.2417 15.725 15.725C15.2417 16.2083 15 16.8 15 17.5C15 18.2 15.2417 18.7917 15.725 19.275C16.2083 19.7583 16.8 20 17.5 20ZM5 19.5H9V15.5H5V19.5ZM10.05 9H13.95L12 5.85L10.05 9Z" fill="#636A79"/>
</g>
<defs>
<clipPath id="clip0_39_596">
<rect width="24" height="24" fill="white"/>
</clipPath>
</defs>
</svg>
