<svg width="14" height="14" viewBox="0 0 14 14" fill="none" xmlns="http://www.w3.org/2000/svg">
<path d="M2.91667 11.0833H3.74792L9.45 5.38125L8.61875 4.55L2.91667 10.2521V11.0833ZM1.75 12.25V9.77083L9.45 2.08542C9.56667 1.97847 9.69558 1.89583 9.83675 1.8375C9.97792 1.77917 10.1261 1.75 10.2813 1.75C10.4364 1.75 10.5871 1.77917 10.7333 1.8375C10.8796 1.89583 11.0059 1.98333 11.1125 2.1L11.9146 2.91667C12.0312 3.02361 12.1164 3.15 12.1701 3.29583C12.2238 3.44167 12.2504 3.5875 12.25 3.73333C12.25 3.88889 12.2234 4.03725 12.1701 4.17842C12.1168 4.31958 12.0316 4.44831 11.9146 4.56458L4.22917 12.25H1.75ZM9.02708 4.97292L8.61875 4.55L9.45 5.38125L9.02708 4.97292Z" fill="#636A79"/>
</svg>
