<svg width="24" height="24" viewBox="0 0 24 24" fill="none" xmlns="http://www.w3.org/2000/svg">
<path d="M14.1022 2.66401C14.7302 2.24801 15.7942 1.95101 16.5972 2.75401L21.2442 7.40201C22.0502 8.20601 21.7522 9.27001 21.3352 9.89701C21.1094 10.237 20.8155 10.5264 20.4722 10.747C20.1382 10.96 19.7162 11.121 19.2612 11.097C19.041 11.0814 18.8215 11.0577 18.6032 11.026L18.5352 11.016C18.3005 10.9824 18.0647 10.958 17.8282 10.943C17.3242 10.918 17.1302 11.003 17.0682 11.063L14.5782 13.554C14.4982 13.634 14.3982 13.812 14.3222 14.154C14.2492 14.484 14.2172 14.89 14.2092 15.34C14.2022 15.772 14.2172 16.214 14.2332 16.64L14.2342 16.687C14.2492 17.11 14.2642 17.542 14.2432 17.881C14.1782 18.912 13.3752 19.671 12.5852 20.022C11.7952 20.372 10.6682 20.459 9.88515 19.675L7.63515 17.425L3.53015 21.53C3.46149 21.6037 3.37869 21.6628 3.28669 21.7038C3.19469 21.7448 3.09538 21.7668 2.99468 21.7686C2.89397 21.7704 2.79394 21.7518 2.70056 21.7141C2.60717 21.6764 2.52233 21.6203 2.45112 21.549C2.3799 21.4778 2.32375 21.393 2.28603 21.2996C2.24831 21.2062 2.22979 21.1062 2.23156 21.0055C2.23334 20.9048 2.25538 20.8055 2.29637 20.7135C2.33736 20.6215 2.39647 20.5387 2.47015 20.47L6.57415 16.365L4.32415 14.115C3.54115 13.331 3.62715 12.205 3.97815 11.415C4.32815 10.625 5.08815 9.82201 6.11815 9.75701C6.45815 9.73601 6.89015 9.75101 7.31315 9.76601L7.36015 9.76701C7.78615 9.78201 8.22815 9.79801 8.66015 9.79101C9.11015 9.78301 9.51615 9.75101 9.84615 9.67801C10.1882 9.60201 10.3662 9.50101 10.4462 9.42101L12.9362 6.93101C12.9972 6.87001 13.0822 6.67501 13.0562 6.17101C13.0411 5.93447 13.0168 5.69862 12.9832 5.46401L12.9742 5.39601C12.9424 5.17762 12.9187 4.95814 12.9032 4.73801C12.8782 4.28301 13.0392 3.86101 13.2512 3.52701C13.4672 3.18701 13.7662 2.88701 14.1022 2.66401Z" fill="#FF0000"/>
</svg>
