<svg width="60" height="60" viewBox="0 0 60 60" fill="none" xmlns="http://www.w3.org/2000/svg">
<path d="M33.75 56.25H26.25C25.2554 56.25 24.3016 55.8549 23.5984 55.1517C22.8951 54.4484 22.5 53.4946 22.5 52.5V39.375C21.5054 39.375 20.5516 38.9799 19.8484 38.2767C19.1451 37.5734 18.75 36.6196 18.75 35.625V24.375C18.75 22.8832 19.3426 21.4524 20.3975 20.3975C21.4524 19.3426 22.8832 18.75 24.375 18.75H35.625C37.1168 18.75 38.5476 19.3426 39.6025 20.3975C40.6574 21.4524 41.25 22.8832 41.25 24.375V35.625C41.25 36.6196 40.8549 37.5734 40.1516 38.2767C39.4484 38.9799 38.4946 39.375 37.5 39.375V52.5C37.5 53.4946 37.1049 54.4484 36.4016 55.1517C35.6984 55.8549 34.7446 56.25 33.75 56.25ZM24.375 22.5C24.1245 22.4834 23.8733 22.5206 23.6383 22.6089C23.4033 22.6973 23.1899 22.8349 23.0124 23.0124C22.8349 23.1899 22.6973 23.4033 22.6089 23.6383C22.5206 23.8733 22.4834 24.1245 22.5 24.375V35.625H26.25V52.5H33.75V35.625H37.5V24.375C37.5166 24.1245 37.4794 23.8733 37.3911 23.6383C37.3027 23.4033 37.1651 23.1899 36.9876 23.0124C36.8101 22.8349 36.5967 22.6973 36.3617 22.6089C36.1267 22.5206 35.8755 22.4834 35.625 22.5H24.375ZM30 16.875C28.5166 16.875 27.0666 16.4351 25.8332 15.611C24.5999 14.7869 23.6386 13.6156 23.0709 12.2451C22.5032 10.8747 22.3547 9.36668 22.6441 7.91183C22.9335 6.45697 23.6478 5.1206 24.6967 4.0717C25.7456 3.02281 27.082 2.3085 28.5368 2.01911C29.9917 1.72972 31.4997 1.87825 32.8701 2.44591C34.2406 3.01356 35.4119 3.97486 36.236 5.20823C37.0601 6.4416 37.5 7.89164 37.5 9.375C37.5 11.3641 36.7098 13.2718 35.3033 14.6783C33.8968 16.0848 31.9891 16.875 30 16.875ZM30 5.625C29.2583 5.625 28.5333 5.84494 27.9166 6.25699C27.2999 6.66905 26.8193 7.25472 26.5355 7.93994C26.2516 8.62516 26.1774 9.37916 26.3221 10.1066C26.4667 10.834 26.8239 11.5022 27.3484 12.0267C27.8728 12.5511 28.541 12.9083 29.2684 13.0529C29.9958 13.1976 30.7498 13.1234 31.4351 12.8396C32.1203 12.5557 32.706 12.0751 33.118 11.4584C33.5301 10.8417 33.75 10.1167 33.75 9.375C33.75 8.38044 33.3549 7.42661 32.6516 6.72335C31.9484 6.02009 30.9946 5.625 30 5.625Z" fill="#3777C0"/>
</svg>
